<?xml version="1.0" encoding="UTF-8" standalone="no"?>
<svg
   xmlns:dc="http://purl.org/dc/elements/1.1/"
   xmlns:cc="http://creativecommons.org/ns#"
   xmlns:rdf="http://www.w3.org/1999/02/22-rdf-syntax-ns#"
   xmlns:svg="http://www.w3.org/2000/svg"
   xmlns="http://www.w3.org/2000/svg"
   xmlns:sodipodi="http://sodipodi.sourceforge.net/DTD/sodipodi-0.dtd"
   xmlns:inkscape="http://www.inkscape.org/namespaces/inkscape"
   viewBox="100 0 116.70149 27.112621"
   preserveAspectRatio="xMidYMid meet"
   class="css-1n9h18d"
   id="ececfhac"
   width="257.42975"
   height="41.056442"
   version="1.1"
   sodipodi:docname="logo_text.svg"
   inkscape:version="1.0.2 (e86c8708, 2021-01-15)">
  <metadata
     id="metadata521">
    <rdf:RDF>
      <cc:Work
         rdf:about="">
        <dc:format>image/svg+xml</dc:format>
        <dc:type
           rdf:resource="http://purl.org/dc/dcmitype/StillImage" />
      </cc:Work>
    </rdf:RDF>
  </metadata>
  <sodipodi:namedview
     pagecolor="#ffffff"
     bordercolor="#666666"
     borderopacity="1"
     objecttolerance="10"
     gridtolerance="10"
     guidetolerance="10"
     inkscape:pageopacity="0"
     inkscape:pageshadow="2"
     inkscape:window-width="1485"
     inkscape:window-height="900"
     id="namedview519"
     showgrid="false"
     inkscape:zoom="2.6549503"
     inkscape:cx="108.537"
     inkscape:cy="52.619439"
     inkscape:window-x="0"
     inkscape:window-y="25"
     inkscape:window-maximized="0"
     inkscape:current-layer="ececfhac"
     inkscape:document-rotation="0" />
  <defs
     id="SvgjsDefs7785" />
  <g
     id="SvgjsG7786"
     featurekey="aMgJeN-0"
     transform="matrix(1.0337092,0,0,1.0337092,22.980125,-37.553126)"
     fill="url(#symbol-foil0.2)">
    <polygon
       points="82.527,61.238 82.264,61.365 82.281,61.389 42.021,89.823 98.369,53.589 82.566,61.219 82.574,61.292 "
       fill="url(#symbol-foil0.2)"
       id="polygon488" />
    <polygon
       points="38.895,57.391 36.811,91.25 79.395,61.174 "
       fill="url(#symbol-foil0.2)"
       id="polygon490" />
    <polygon
       points="34.918,92.062 37.066,57.146 3.71,38.712 "
       fill="url(#symbol-foil0.2)"
       id="polygon492" />
    <polygon
       points="95.209,45.172 80.775,27.29 79.232,32.516 95.928,46.175 "
       fill="url(#symbol-foil0.2)"
       id="polygon494" />
    <polygon
       points="79.758,35.645 82.281,58.632 98.135,50.979 "
       fill="url(#symbol-foil0.2)"
       id="polygon496" />
    <polygon
       points="79.758,54.504 77.424,33.356 61.512,33.498 "
       fill="url(#symbol-foil0.2)"
       id="polygon498" />
    <polygon
       points="39.467,54.979 80.432,58.808 59.756,34.836 "
       fill="url(#symbol-foil0.2)"
       id="polygon500" />
    <polygon
       points="36.674,27.365 38.974,52.971 58.445,33.191 "
       fill="url(#symbol-foil0.2)"
       id="polygon502" />
    <polygon
       points="34.822,28.537 6.776,37.639 37.133,54.393 "
       fill="url(#symbol-foil0.2)"
       id="polygon504" />
    <polygon
       points="34.527,26.292 25.659,19.867 8.923,35.031 "
       fill="url(#symbol-foil0.2)"
       id="polygon506" />
    <polygon
       points="3.25,37.485 20.957,21.022 1.63,26.184 "
       fill="url(#symbol-foil0.2)"
       id="polygon508" />
    <polygon
       points="7.837,21.987 26.101,17.109 28.355,14.604 "
       fill="url(#symbol-foil0.2)"
       id="polygon510" />
    <polygon
       points="67.951,19.853 48.173,14.486 32.256,13.938 28.073,18.586 36.751,24.86 60.131,31.196 77.148,30.907 78.672,25.749 "
       fill="url(#symbol-foil0.2)"
       id="polygon512" />
  </g>
  <g
     id="SvgjsG7787"
     featurekey="8L6ael-0"
     transform="matrix(1.9366158,0,0,1.9366158,72.227508,-11.619695)"
     fill="url(#symbol-foil0.1)">
    <path
       d="m 10.74,6.84 c 0,0.46 -0.38,0.82 -0.84,0.82 H 4 v 7.5 h 5.9 c 0.46,0 0.84,0.38 0.84,0.84 0,0.46 -0.38,0.82 -0.84,0.82 H 4 v 1.52 h 5.9 c 0.46,0 0.84,0.36 0.84,0.82 0,0.46 -0.38,0.84 -0.84,0.84 H 3.16 C 2.7,20 2.32,19.62 2.32,19.16 v -2.34 h -0.9 c -0.46,0 -0.84,-0.36 -0.84,-0.82 0,-0.46 0.38,-0.84 0.84,-0.84 h 0.9 V 6.84 C 2.32,6.38 2.7,6 3.16,6 H 9.9 c 0.46,0 0.84,0.38 0.84,0.84 z M 23.186,6.46 c 0.16,0.28 0.12,0.62 -0.06,0.86 l -7.72,11 h 7.64 c 0.48,0 0.86,0.38 0.86,0.84 0,0.46 -0.38,0.84 -0.86,0.84 h -9.28 c -0.3,0 -0.6,-0.18 -0.74,-0.46 -0.14,-0.28 -0.12,-0.62 0.06,-0.86 l 7.74,-11 h -6.52 c -0.46,0 -0.84,-0.38 -0.84,-0.84 0,-0.46 0.38,-0.84 0.84,-0.84 h 8.14 c 0.32,0 0.6,0.18 0.74,0.46 z m 3.766,7.36 c 0,-0.44 0.36,-0.82 0.82,-0.82 h 2.58 c 0.46,0 0.84,0.38 0.84,0.82 0,0.46 -0.38,0.84 -0.84,0.84 h -2.58 c -0.46,0 -0.82,-0.38 -0.82,-0.84 z M 41.738,6 c 0.46,0 0.82,0.38 0.82,0.84 0,0.46 -0.36,0.82 -0.82,0.82 h -2.5 v 11.5 c 0,0.46 -0.38,0.84 -0.84,0.84 -0.46,0 -0.82,-0.38 -0.82,-0.84 V 7.66 h -2.5 c -0.46,0 -0.84,-0.36 -0.84,-0.82 0,-0.46 0.38,-0.84 0.84,-0.84 z m 11.946,13.96 c -0.1,0.02 -0.18,0.04 -0.28,0.04 -0.34,0 -0.66,-0.22 -0.78,-0.58 -0.46,-1.36 -1.92,-2.14 -4.04,-2.14 l -0.34,-0.02 c -0.18,0.02 -0.36,0.04 -0.54,0.04 h -0.92 v 1.82 c 0,0.46 -0.36,0.84 -0.82,0.84 -0.46,0 -0.84,-0.38 -0.84,-0.84 V 6.88 c 0,-0.48 0.4,-0.84 0.86,-0.84 l 1.72,0.04 c 2.86,0 5.18,2.52 5.18,5.6 0,1.72 -0.7,3.26 -1.84,4.28 1.56,0.52 2.7,1.54 3.16,2.94 0.14,0.44 -0.1,0.92 -0.52,1.06 z M 47.704,7.74 46.784,7.72 v 7.86 l 1.34,0.02 c 1.74,-0.24 3.1,-1.9 3.1,-3.92 0,-2.16 -1.58,-3.94 -3.52,-3.94 z M 55.43,16 c 0,-0.48 0.38,-0.84 0.84,-0.84 h 0.74 C 57.69,9.06 60.17,6 64.03,6 c 0.46,0 0.82,0.38 0.82,0.84 v 12.32 c 0,0.46 -0.36,0.84 -0.82,0.84 -0.46,0 -0.84,-0.38 -0.84,-0.84 v -2.34 h -4.64 c -0.04,0.74 -0.06,1.78 -0.06,2.34 0,0.46 -0.36,0.84 -0.82,0.84 -0.46,0 -0.84,-0.38 -0.84,-0.84 0,-0.68 0.02,-1.7 0.06,-2.34 h -0.62 c -0.46,0 -0.84,-0.36 -0.84,-0.82 z m 7.76,-8.24 c -2.98,0.6 -4.1,4.06 -4.48,7.4 h 4.48 z M 71.556,20 h -2.46 c -0.6,0 -0.82,-0.46 -0.82,-1 V 6.82 c 0,-0.22 0.08,-0.44 0.24,-0.58 0.16,-0.16 0.38,-0.24 0.6,-0.24 l 2.46,0.04 c 3.82,0 6.96,3.14 6.96,6.98 0,3.84 -3.14,6.98 -6.98,6.98 z m 5.32,-6.98 c 0,-2.94 -2.38,-5.32 -5.32,-5.32 l -1.64,-0.04 v 10.7 h 1.64 c 2.94,0 5.32,-2.4 5.32,-5.34 z m 11.486,6.14 c 0,0.46 -0.38,0.84 -0.84,0.84 h -4.66 c -0.46,0 -0.84,-0.38 -0.84,-0.84 v -2.34 h -0.9 c -0.46,0 -0.84,-0.36 -0.84,-0.82 0,-0.46 0.38,-0.84 0.84,-0.84 h 0.9 V 6.84 c 0,-0.46 0.38,-0.84 0.84,-0.84 h 4.66 c 0.46,0 0.84,0.38 0.84,0.84 0,0.46 -0.38,0.82 -0.84,0.82 h -3.82 v 7.5 h 3.82 c 0.46,0 0.84,0.38 0.84,0.84 0,0.46 -0.38,0.82 -0.84,0.82 h -3.82 v 1.52 h 3.82 c 0.46,0 0.84,0.36 0.84,0.82 z"
       fill="#f7ed9c"
       id="path515" />
  </g>
</svg>
