<svg xmlns:xlink="http://www.w3.org/1999/xlink" xmlns="http://www.w3.org/2000/svg" viewBox="0 0 170 128.11262061565327" preserveAspectRatio="xMidYMid meet" class="css-1uxicuq" id="hddabhfg" width="225"  height="141" ><defs id="SvgjsDefs7785"></defs><g id="SvgjsG7786" featurekey="aMgJeN-0" transform="matrix(1.0337091943666192,0,0,1.0337091943666192,33.31505401811152,-14.407838467165229)" fill="#C5F5F0"><polygon xmlns="http://www.w3.org/2000/svg" points="42.021,89.823 98.369,53.589 82.566,61.219 82.574,61.292 82.527,61.238 82.264,61.365 82.281,61.389 " fill="#C5F5F0"></polygon><polygon xmlns="http://www.w3.org/2000/svg" points="79.395,61.174 38.895,57.391 36.811,91.25 " fill="#C5F5F0"></polygon><polygon xmlns="http://www.w3.org/2000/svg" points="3.71,38.712 34.918,92.062 37.066,57.146 " fill="#C5F5F0"></polygon><polygon xmlns="http://www.w3.org/2000/svg" points="95.209,45.172 80.775,27.29 79.232,32.516 95.928,46.175 " fill="#C5F5F0"></polygon><polygon xmlns="http://www.w3.org/2000/svg" points="98.135,50.979 79.758,35.645 82.281,58.632 " fill="#C5F5F0"></polygon><polygon xmlns="http://www.w3.org/2000/svg" points="61.512,33.498 79.758,54.504 77.424,33.356 " fill="#C5F5F0"></polygon><polygon xmlns="http://www.w3.org/2000/svg" points="59.756,34.836 39.467,54.979 80.432,58.808 " fill="#C5F5F0"></polygon><polygon xmlns="http://www.w3.org/2000/svg" points="58.445,33.191 36.674,27.365 38.974,52.971 " fill="#C5F5F0"></polygon><polygon xmlns="http://www.w3.org/2000/svg" points="37.133,54.393 34.822,28.537 6.776,37.639 " fill="#C5F5F0"></polygon><polygon xmlns="http://www.w3.org/2000/svg" points="8.923,35.031 34.527,26.292 25.659,19.867 " fill="#C5F5F0"></polygon><polygon xmlns="http://www.w3.org/2000/svg" points="1.63,26.184 3.25,37.485 20.957,21.022 " fill="#C5F5F0"></polygon><polygon xmlns="http://www.w3.org/2000/svg" points="28.355,14.604 7.837,21.987 26.101,17.109 " fill="#C5F5F0"></polygon><polygon xmlns="http://www.w3.org/2000/svg" points="36.751,24.86 60.131,31.196 77.148,30.907 78.672,25.749 67.951,19.853 48.173,14.486 32.256,13.938 28.073,18.586   " fill="#C5F5F0"></polygon></g><g id="SvgjsG7787" featurekey="8L6ael-0" transform="matrix(1.936615758260948,0,0,1.936615758260948,-1.123236299451527,89.38030637388466)" fill="#0B3939"><path d="M10.74 6.84 c0 0.46 -0.38 0.82 -0.84 0.82 l-5.9 0 l0 7.5 l5.9 0 c0.46 0 0.84 0.38 0.84 0.84 s-0.38 0.82 -0.84 0.82 l-5.9 0 l0 1.52 l5.9 0 c0.46 0 0.84 0.36 0.84 0.82 s-0.38 0.84 -0.84 0.84 l-6.74 0 c-0.46 0 -0.84 -0.38 -0.84 -0.84 l0 -2.34 l-0.9 0 c-0.46 0 -0.84 -0.36 -0.84 -0.82 s0.38 -0.84 0.84 -0.84 l0.9 0 l0 -8.32 c0 -0.46 0.38 -0.84 0.84 -0.84 l6.74 0 c0.46 0 0.84 0.38 0.84 0.84 z M23.186 6.460000000000001 c0.16 0.28 0.12 0.62 -0.06 0.86 l-7.72 11 l7.64 0 c0.48 0 0.86 0.38 0.86 0.84 s-0.38 0.84 -0.86 0.84 l-9.28 0 c-0.3 0 -0.6 -0.18 -0.74 -0.46 s-0.12 -0.62 0.06 -0.86 l7.74 -11 l-6.52 0 c-0.46 0 -0.84 -0.38 -0.84 -0.84 s0.38 -0.84 0.84 -0.84 l8.14 0 c0.32 0 0.6 0.18 0.74 0.46 z M26.952 13.82 c0 -0.44 0.36 -0.82 0.82 -0.82 l2.58 0 c0.46 0 0.84 0.38 0.84 0.82 c0 0.46 -0.38 0.84 -0.84 0.84 l-2.58 0 c-0.46 0 -0.82 -0.38 -0.82 -0.84 z M41.73800000000001 6 c0.46 0 0.82 0.38 0.82 0.84 s-0.36 0.82 -0.82 0.82 l-2.5 0 l0 11.5 c0 0.46 -0.38 0.84 -0.84 0.84 s-0.82 -0.38 -0.82 -0.84 l0 -11.5 l-2.5 0 c-0.46 0 -0.84 -0.36 -0.84 -0.82 s0.38 -0.84 0.84 -0.84 l6.66 0 z M53.684000000000005 19.96 c-0.1 0.02 -0.18 0.04 -0.28 0.04 c-0.34 0 -0.66 -0.22 -0.78 -0.58 c-0.46 -1.36 -1.92 -2.14 -4.04 -2.14 l-0.34 -0.02 c-0.18 0.02 -0.36 0.04 -0.54 0.04 l-0.92 0 l0 1.82 c0 0.46 -0.36 0.84 -0.82 0.84 s-0.84 -0.38 -0.84 -0.84 l0 -12.24 c0 -0.48 0.4 -0.84 0.86 -0.84 l1.72 0.04 c2.86 0 5.18 2.52 5.18 5.6 c0 1.72 -0.7 3.26 -1.84 4.28 c1.56 0.52 2.7 1.54 3.16 2.94 c0.14 0.44 -0.1 0.92 -0.52 1.06 z M47.704 7.74 l-0.92 -0.02 l0 7.86 l1.34 0.02 c1.74 -0.24 3.1 -1.9 3.1 -3.92 c0 -2.16 -1.58 -3.94 -3.52 -3.94 z M55.43000000000001 16 c0 -0.48 0.38 -0.84 0.84 -0.84 l0.74 0 c0.68 -6.1 3.16 -9.16 7.02 -9.16 c0.46 0 0.82 0.38 0.82 0.84 l0 12.32 c0 0.46 -0.36 0.84 -0.82 0.84 s-0.84 -0.38 -0.84 -0.84 l0 -2.34 l-4.64 0 c-0.04 0.74 -0.06 1.78 -0.06 2.34 c0 0.46 -0.36 0.84 -0.82 0.84 s-0.84 -0.38 -0.84 -0.84 c0 -0.68 0.02 -1.7 0.06 -2.34 l-0.62 0 c-0.46 0 -0.84 -0.36 -0.84 -0.82 z M63.190000000000005 7.76 c-2.98 0.6 -4.1 4.06 -4.48 7.4 l4.48 0 l0 -7.4 z M71.55600000000001 20 l-2.46 0 c-0.6 0 -0.82 -0.46 -0.82 -1 l0 -12.18 c0 -0.22 0.08 -0.44 0.24 -0.58 c0.16 -0.16 0.38 -0.24 0.6 -0.24 l2.46 0.04 c3.82 0 6.96 3.14 6.96 6.98 s-3.14 6.98 -6.98 6.98 z M76.876 13.02 c0 -2.94 -2.38 -5.32 -5.32 -5.32 l-1.64 -0.04 l0 10.7 l1.64 0 c2.94 0 5.32 -2.4 5.32 -5.34 z M88.36200000000002 19.16 c0 0.46 -0.38 0.84 -0.84 0.84 l-4.66 0 c-0.46 0 -0.84 -0.38 -0.84 -0.84 l0 -2.34 l-0.9 0 c-0.46 0 -0.84 -0.36 -0.84 -0.82 s0.38 -0.84 0.84 -0.84 l0.9 0 l0 -8.32 c0 -0.46 0.38 -0.84 0.84 -0.84 l4.66 0 c0.46 0 0.84 0.38 0.84 0.84 s-0.38 0.82 -0.84 0.82 l-3.82 0 l0 7.5 l3.82 0 c0.46 0 0.84 0.38 0.84 0.84 s-0.38 0.82 -0.84 0.82 l-3.82 0 l0 1.52 l3.82 0 c0.46 0 0.84 0.36 0.84 0.82 z" fill="#0B3939"></path></g></svg>