<svg xmlns:xlink="http://www.w3.org/1999/xlink" xmlns="http://www.w3.org/2000/svg" viewBox="0 0 300 21.319383330883195" preserveAspectRatio="xMidYMid meet" class="css-116ckqy" id="bhfffagh" width="300"  height="21.319383330883195" ><defs id="SvgjsDefs2337"></defs><g id="SvgjsG2338" featurekey="j5pGhi-0" transform="matrix(1.5228126801295592,0,0,1.5228126801295592,-0.7250326253068543,-9.136873902376342)" fill="#FFFFFF"><path d="M8.9 19.66 c-0.08 0.08 -0.16 0.16 -0.26 0.22 c-0.02 0.02 -0.04 0.02 -0.04 0.02 c-0.02 0.02 -0.04 0.02 -0.04 0.04 l-0.08 0.02 c-0.1 0.02 -0.18 0.04 -0.26 0.04 c-0.06 0 -0.1 0 -0.14 -0.02 l-0.04 0 c-0.16 -0.04 -0.3 -0.12 -0.42 -0.24 c-0.04 -0.06 -0.06 -0.08 -0.08 -0.12 c-0.02 0 -0.02 -0.02 -0.04 -0.04 l-6.92 -12.34 c-0.22 -0.4 -0.08 -0.9 0.32 -1.14 c0.14 -0.06 0.28 -0.1 0.42 -0.1 c0.28 0 0.58 0.16 0.72 0.42 l6.1 10.88 l1.04 -2.34 l-4.42 -7.72 c-0.24 -0.4 -0.1 -0.9 0.3 -1.14 c0.14 -0.06 0.28 -0.1 0.42 -0.1 c0.28 0 0.58 0.16 0.72 0.42 l3.82 6.64 l2.92 -6.56 c0.14 -0.32 0.44 -0.5 0.76 -0.5 c0.1 0 0.22 0.02 0.34 0.08 c0.42 0.18 0.6 0.68 0.42 1.1 l-3.42 7.68 l1.4 2.42 l5.02 -10.8 c0.14 -0.3 0.44 -0.48 0.74 -0.48 c0.12 0 0.24 0.02 0.36 0.08 c0.42 0.2 0.6 0.68 0.4 1.1 l-5.68 12.26 c-0.04 0.06 -0.06 0.1 -0.1 0.14 c0 0.02 0 0.02 -0.02 0.04 c-0.02 0.04 -0.04 0.06 -0.08 0.08 l-0.02 0.02 c-0.06 0.06 -0.1 0.1 -0.18 0.12 c0 0 -0.02 0.02 -0.04 0.02 c-0.02 0.02 -0.04 0.02 -0.06 0.02 c-0.08 0.04 -0.18 0.06 -0.26 0.06 c-0.06 0 -0.12 -0.02 -0.16 -0.02 c-0.26 -0.06 -0.44 -0.2 -0.56 -0.4 l-1.6 -2.76 l-1.22 2.74 c-0.02 0.04 -0.02 0.06 -0.02 0.06 c-0.02 0.04 -0.04 0.06 -0.06 0.1 z M26.979999999999997 19.16 c0 0.46 -0.38 0.84 -0.84 0.84 l-4.66 0 c-0.46 0 -0.84 -0.38 -0.84 -0.84 l0 -2.34 l-0.9 0 c-0.46 0 -0.84 -0.36 -0.84 -0.82 s0.38 -0.84 0.84 -0.84 l0.9 0 l0 -8.32 c0 -0.46 0.38 -0.84 0.84 -0.84 l4.66 0 c0.46 0 0.84 0.38 0.84 0.84 s-0.38 0.82 -0.84 0.82 l-3.82 0 l0 7.5 l3.82 0 c0.46 0 0.84 0.38 0.84 0.84 s-0.38 0.82 -0.84 0.82 l-3.82 0 l0 1.52 l3.82 0 c0.46 0 0.84 0.36 0.84 0.82 z M28.32 19.16 l0 -12.32 c0 -0.46 0.38 -0.84 0.84 -0.84 s0.82 0.38 0.82 0.84 l0 11.5 l3.1 0 c0.46 0 0.84 0.36 0.84 0.82 s-0.38 0.84 -0.84 0.84 l-3.92 0 c-0.46 0 -0.84 -0.38 -0.84 -0.84 z M39.260000000000005 6 c0.46 0 0.82 0.36 0.82 0.82 c0 0.44 -0.36 0.82 -0.82 0.82 c-1.24 0 -3.18 2.24 -3.18 5.24 c0 0.04 0 0.08 -0.02 0.12 c0.02 0.04 0.02 0.08 0.02 0.12 c0 3 1.94 5.24 3.18 5.24 c0.46 0 0.82 0.36 0.82 0.82 s-0.36 0.82 -0.82 0.82 c-2.22 0 -4.82 -3 -4.82 -6.88 l0 -0.24 c0 -3.88 2.6 -6.88 4.82 -6.88 z M55.64 13 c0 3.86 -3.26 7 -7.28 7 s-7.3 -3.14 -7.3 -7 s3.28 -7 7.3 -7 s7.28 3.14 7.28 7 z M48.36 7.66 c-3.1 0 -5.62 2.4 -5.62 5.34 s2.52 5.34 5.62 5.34 s5.62 -2.4 5.62 -5.34 s-2.52 -5.34 -5.62 -5.34 z M66.10000000000001 6 l0.22 0 c1.88 0 3.42 1.52 3.42 3.4 l0 9.76 c0 0.46 -0.38 0.84 -0.84 0.84 s-0.84 -0.38 -0.84 -0.84 l0 -9.76 c0 -0.96 -0.78 -1.74 -1.74 -1.74 l-0.22 0 c-0.96 0 -1.72 0.78 -1.72 1.74 l0 9.76 c0 0.46 -0.38 0.84 -0.84 0.84 s-0.84 -0.38 -0.84 -0.84 l0 -9.76 c0 -0.96 -0.78 -1.74 -1.74 -1.74 l-0.22 0 c-0.96 0 -1.74 0.78 -1.74 1.74 l0 9.76 c0 0.46 -0.36 0.84 -0.82 0.84 s-0.84 -0.38 -0.84 -0.84 l0 -12.32 c0 -0.46 0.38 -0.84 0.84 -0.84 c0.34 0 0.64 0.22 0.76 0.52 c0.52 -0.32 1.14 -0.52 1.8 -0.52 l0.22 0 c1.04 0 1.96 0.46 2.58 1.18 c0.62 -0.72 1.54 -1.18 2.56 -1.18 z M78.42000000000002 19.16 c0 0.46 -0.38 0.84 -0.84 0.84 l-4.66 0 c-0.46 0 -0.84 -0.38 -0.84 -0.84 l0 -2.34 l-0.9 0 c-0.46 0 -0.84 -0.36 -0.84 -0.82 s0.38 -0.84 0.84 -0.84 l0.9 0 l0 -8.32 c0 -0.46 0.38 -0.84 0.84 -0.84 l4.66 0 c0.46 0 0.84 0.38 0.84 0.84 s-0.38 0.82 -0.84 0.82 l-3.82 0 l0 7.5 l3.82 0 c0.46 0 0.84 0.38 0.84 0.84 s-0.38 0.82 -0.84 0.82 l-3.82 0 l0 1.52 l3.82 0 c0.46 0 0.84 0.36 0.84 0.82 z M92.46000000000002 6 c0.46 0 0.82 0.38 0.82 0.84 s-0.36 0.82 -0.82 0.82 l-2.5 0 l0 11.5 c0 0.46 -0.38 0.84 -0.84 0.84 s-0.82 -0.38 -0.82 -0.84 l0 -11.5 l-2.5 0 c-0.46 0 -0.84 -0.36 -0.84 -0.82 s0.38 -0.84 0.84 -0.84 l6.66 0 z M108.72000000000001 13 c0 3.86 -3.26 7 -7.28 7 s-7.3 -3.14 -7.3 -7 s3.28 -7 7.3 -7 s7.28 3.14 7.28 7 z M101.44000000000001 7.66 c-3.1 0 -5.62 2.4 -5.62 5.34 s2.52 5.34 5.62 5.34 s5.62 -2.4 5.62 -5.34 s-2.52 -5.34 -5.62 -5.34 z M126.16000000000001 6.84 c0 0.46 -0.38 0.82 -0.84 0.82 l-5.9 0 l0 7.5 l5.9 0 c0.46 0 0.84 0.38 0.84 0.84 s-0.38 0.82 -0.84 0.82 l-5.9 0 l0 1.52 l5.9 0 c0.46 0 0.84 0.36 0.84 0.82 s-0.38 0.84 -0.84 0.84 l-6.74 0 c-0.46 0 -0.84 -0.38 -0.84 -0.84 l0 -2.34 l-0.9 0 c-0.46 0 -0.84 -0.36 -0.84 -0.82 s0.38 -0.84 0.84 -0.84 l0.9 0 l0 -8.32 c0 -0.46 0.38 -0.84 0.84 -0.84 l6.74 0 c0.46 0 0.84 0.38 0.84 0.84 z M137.18 6.460000000000001 c0.16 0.28 0.12 0.62 -0.06 0.86 l-7.72 11 l7.64 0 c0.48 0 0.86 0.38 0.86 0.84 s-0.38 0.84 -0.86 0.84 l-9.28 0 c-0.3 0 -0.6 -0.18 -0.74 -0.46 s-0.12 -0.62 0.06 -0.86 l7.74 -11 l-6.52 0 c-0.46 0 -0.84 -0.38 -0.84 -0.84 s0.38 -0.84 0.84 -0.84 l8.14 0 c0.32 0 0.6 0.18 0.74 0.46 z M139.52 13.82 c0 -0.44 0.36 -0.82 0.82 -0.82 l2.58 0 c0.46 0 0.84 0.38 0.84 0.82 c0 0.46 -0.38 0.84 -0.84 0.84 l-2.58 0 c-0.46 0 -0.82 -0.38 -0.82 -0.84 z M152.88 6 c0.46 0 0.82 0.38 0.82 0.84 s-0.36 0.82 -0.82 0.82 l-2.5 0 l0 11.5 c0 0.46 -0.38 0.84 -0.84 0.84 s-0.82 -0.38 -0.82 -0.84 l0 -11.5 l-2.5 0 c-0.46 0 -0.84 -0.36 -0.84 -0.82 s0.38 -0.84 0.84 -0.84 l6.66 0 z M163.4 19.96 c-0.1 0.02 -0.18 0.04 -0.28 0.04 c-0.34 0 -0.66 -0.22 -0.78 -0.58 c-0.46 -1.36 -1.92 -2.14 -4.04 -2.14 l-0.34 -0.02 c-0.18 0.02 -0.36 0.04 -0.54 0.04 l-0.92 0 l0 1.82 c0 0.46 -0.36 0.84 -0.82 0.84 s-0.84 -0.38 -0.84 -0.84 l0 -12.24 c0 -0.48 0.4 -0.84 0.86 -0.84 l1.72 0.04 c2.86 0 5.18 2.52 5.18 5.6 c0 1.72 -0.7 3.26 -1.84 4.28 c1.56 0.52 2.7 1.54 3.16 2.94 c0.14 0.44 -0.1 0.92 -0.52 1.06 z M157.42000000000002 7.74 l-0.92 -0.02 l0 7.86 l1.34 0.02 c1.74 -0.24 3.1 -1.9 3.1 -3.92 c0 -2.16 -1.58 -3.94 -3.52 -3.94 z M163.72 16 c0 -0.48 0.38 -0.84 0.84 -0.84 l0.74 0 c0.68 -6.1 3.16 -9.16 7.02 -9.16 c0.46 0 0.82 0.38 0.82 0.84 l0 12.32 c0 0.46 -0.36 0.84 -0.82 0.84 s-0.84 -0.38 -0.84 -0.84 l0 -2.34 l-4.64 0 c-0.04 0.74 -0.06 1.78 -0.06 2.34 c0 0.46 -0.36 0.84 -0.82 0.84 s-0.84 -0.38 -0.84 -0.84 c0 -0.68 0.02 -1.7 0.06 -2.34 l-0.62 0 c-0.46 0 -0.84 -0.36 -0.84 -0.82 z M171.48 7.76 c-2.98 0.6 -4.1 4.06 -4.48 7.4 l4.48 0 l0 -7.4 z M178.42 20 l-2.46 0 c-0.6 0 -0.82 -0.46 -0.82 -1 l0 -12.18 c0 -0.22 0.08 -0.44 0.24 -0.58 c0.16 -0.16 0.38 -0.24 0.6 -0.24 l2.46 0.04 c3.82 0 6.96 3.14 6.96 6.98 s-3.14 6.98 -6.98 6.98 z M183.73999999999998 13.02 c0 -2.94 -2.38 -5.32 -5.32 -5.32 l-1.64 -0.04 l0 10.7 l1.64 0 c2.94 0 5.32 -2.4 5.32 -5.34 z M193.79999999999998 19.16 c0 0.46 -0.38 0.84 -0.84 0.84 l-4.66 0 c-0.46 0 -0.84 -0.38 -0.84 -0.84 l0 -2.34 l-0.9 0 c-0.46 0 -0.84 -0.36 -0.84 -0.82 s0.38 -0.84 0.84 -0.84 l0.9 0 l0 -8.32 c0 -0.46 0.38 -0.84 0.84 -0.84 l4.66 0 c0.46 0 0.84 0.38 0.84 0.84 s-0.38 0.82 -0.84 0.82 l-3.82 0 l0 7.5 l3.82 0 c0.46 0 0.84 0.38 0.84 0.84 s-0.38 0.82 -0.84 0.82 l-3.82 0 l0 1.52 l3.82 0 c0.46 0 0.84 0.36 0.84 0.82 z M195.14 14.940000000000001 l0 -8.12 c0 -0.44 0.38 -0.82 0.84 -0.82 c0.44 0 0.82 0.38 0.82 0.82 l0 8.12 c0 0.46 -0.36 0.84 -0.82 0.84 c-0.48 0 -0.84 -0.38 -0.84 -0.84 z M195.98 17 c0.82 0 1.5 0.68 1.5 1.5 s-0.68 1.5 -1.5 1.5 c-0.84 0 -1.5 -0.68 -1.5 -1.5 s0.66 -1.5 1.5 -1.5 z" fill="#FFFFFF"></path></g></svg>